<?xml version="1.0" encoding="UTF-8"?>
<svg width="48px" height="48px" viewBox="0 0 48 48" version="1.1" xmlns="http://www.w3.org/2000/svg" xmlns:xlink="http://www.w3.org/1999/xlink">
    <!-- Generator: Sketch 51.3 (57544) - http://www.bohemiancoding.com/sketch -->
    <title>48x48/COMMUNICATION/calendar</title>
    <desc>Created with Sketch.</desc>
    <defs></defs>
    <g id="48x48/COMMUNICATION/calendar" stroke="none" stroke-width="1" fill="none" fill-rule="evenodd">
        <g id="calendar">
            <g id="Bounding_Boxes">
                <polygon id="Shape" points="0 0 48 0 48 48 0 48"></polygon>
            </g>
            <path d="M16,6 C17.1045695,6 18,6.8954305 18,8 L18,11.2 C18,11.6418278 17.6418278,12 17.2,12 L14.8,12 C14.3581722,12 14,11.6418278 14,11.2 L14,8 C14,6.8954305 14.8954305,6 16,6 Z M32,6 C33.1045695,6 34,6.8954305 34,8 L34,11.2 C34,11.6418278 33.6418278,12 33.2,12 L30.8,12 C30.3581722,12 30,11.6418278 30,11.2 L30,8 C30,6.8954305 30.8954305,6 32,6 Z M38,14 L38,12 L36.4,12 C36.1790861,12 36,11.8209139 36,11.6 L36,8.40000001 C36,8.1790861 36.1790861,8 36.4,8 L41.2,8 C41.6418278,8 42,8.3581722 42,8.8 L42,36 C42,39.3137085 39.3137085,42 36,42 L12,42 C8.6862915,42 6,39.3137085 6,36 L6,8.8 C6,8.3581722 6.3581722,8 6.8,8 L11.6,8 C11.8209139,8 12,8.1790861 12,8.40000001 L12,11.6 C12,11.8209139 11.8209139,12 11.6,12 L10,12 L10,14 L38,14 Z M38,36 L38,18 L10,18 L10,36 C10,37.1045695 10.8954305,38 12,38 L36,38 C37.1045695,38 38,37.1045695 38,36 Z M20.4,8 L27.6,8 C27.8209139,8 28,8.1790861 28,8.40000001 L28,11.6 C28,11.8209139 27.8209139,12 27.6,12 L20.4,12 C20.1790861,12 20,11.8209139 20,11.6 L20,8.40000001 C20,8.1790861 20.1790861,8 20.4,8 Z M29.2,22 L32.8,22 C33.4627417,22 34,22.3581722 34,22.8 L34,25.2 C34,25.6418278 33.4627417,26 32.8,26 L29.2,26 C28.5372583,26 28,25.6418278 28,25.2 L28,22.8 C28,22.3581722 28.5372583,22 29.2,22 Z M14.8,22 L25.2,22 C25.6418278,22 26,22.3581722 26,22.8 L26,25.2 C26,25.6418278 25.6418278,26 25.2,26 L14.8,26 C14.3581722,26 14,25.6418278 14,25.2 L14,22.8 C14,22.3581722 14.3581722,22 14.8,22 Z M15.2,30 L18.8,30 C19.4627417,30 20,30.3581722 20,30.8 L20,33.2 C20,33.6418278 19.4627417,34 18.8,34 L15.2,34 C14.5372583,34 14,33.6418278 14,33.2 L14,30.8 C14,30.3581722 14.5372583,30 15.2,30 Z M22.8,30 L33.2,30 C33.6418278,30 34,30.3581722 34,30.8 L34,33.2 C34,33.6418278 33.6418278,34 33.2,34 L22.8,34 C22.3581722,34 22,33.6418278 22,33.2 L22,30.8 C22,30.3581722 22.3581722,30 22.8,30 Z" fill="#31303D"></path>
        </g>
    </g>
</svg>