<?xml version="1.0" encoding="UTF-8"?>
<svg width="519px" height="519px" viewBox="0 0 519 519" version="1.1" xmlns="http://www.w3.org/2000/svg" xmlns:xlink="http://www.w3.org/1999/xlink">
    <!-- Generator: Sketch 52.5 (67469) - http://www.bohemiancoding.com/sketch -->
    <title>mountain-logo</title>
    <desc>Created with Sketch.</desc>
    <defs>
        <circle id="path-1" cx="258.5" cy="258.5" r="258.5"></circle>
    </defs>
    <g id="Page-1" stroke="none" stroke-width="1" fill="none" fill-rule="evenodd">
        <g id="mountain-logo" transform="translate(1.000000, 1.000000)">
            <mask id="mask-2" fill="white">
                <use xlink:href="#path-1"></use>
            </mask>
            <use id="Oval" stroke="#979797" xlink:href="#path-1"></use>
            <g id="sky" mask="url(#mask-2)">
                <g transform="translate(0.000000, -6.000000)" id="Rectangle">
                    <rect fill="#808080" x="0" y="0" width="517" height="158"></rect>
                    <path d="M-5.68434189e-14,156 C148.222222,106.666667 259.888889,82 335,82 C410.111111,82 470.777778,106.666667 517,156 L517,268 L-5.68434189e-14,268 L-5.68434189e-14,156 Z" fill="#9B9B9B"></path>
                    <path d="M-1.13686838e-13,218 C66.4555108,206.189885 113.788844,201.189885 142,203 C235.661158,209.009589 306.977848,237 363,237 C444.333333,237 495.666667,230.666667 517,218 L517,378 L-1.13686838e-13,378 L-1.13686838e-13,218 Z" fill="#D8D8D8"></path>
                </g>
            </g>
            <g id="Mountain" mask="url(#mask-2)">
                <g transform="translate(-3.000000, 155.000000)">
                    <path d="M70.257,80.631 L103.591,119.802 L121.096,121.995 L160.825,159.914 L232.207,74.676 L257.458,66.217 L298.872,0.407 L312.003,6.362 L347.356,70.291 L402.238,99.121 L431.866,135.471 L444.323,117.922 L454.088,117.922 L516.294,180.926 C514.938,227.594 501.18,324.727 478.211,362 L38.716,362 C14.493,322.698 0.519,222.831 0.519,173.275 C0.519,160.137 1.509,147.23 3.402,134.621 L32.213,88.467 L70.257,80.631 Z" id="Path" fill="#000000"></path>
                    <g id="Group" stroke-width="1" fill="none" transform="translate(50.000000, 7.000000)">
                        <polygon id="Path" fill="#EEEEEE" points="251.688 2.424 260.315 42.591 251.564 42.906 257.957 89.598 284.893 145.378 310.888 195.203 344.828 195.203 332.368 151.331 338.764 149.137 366 187 449.872 225.288 441.121 201.159 385.129 135.902 382.404 139.738 345.827 94.864 310.888 76.51 321.596 114.038 316.879 115.606 293.608 67.434 290.175 65.63 254.969 1.965 252.64 0.909"></polygon>
                        <polygon id="Path" fill="#EEEEEE" points="209.84 63.77 230.688 139.423 223.952 141.616 186.924 72.407 188.037 71.077"></polygon>
                        <polygon id="Path" fill="#EEEEEE" points="0.947 82.618 24.968 204.288 46.179 214.63 51.903 129.392 64.697 131.273 67.053 187.053 73.448 190.188 104.655 155.657 66.561 119.302 48.499 117.039 16.483 79.417"></polygon>
                        <path d="M398.02,117.742 L398.02,139.735 L421.249,166.372 L427.311,152.271 L432.025,153.835 L463.311,206.356 C464.533,198.534 465.385,190.593 465.889,182.557 L399.895,115.716 L399.456,115.716 L398.02,117.742 Z" id="Path" fill="#EEEEEE"></path>
                    </g>
                </g>
            </g>
            <path d="M258.5,517 C115.734392,517 0,401.265608 0,258.5 C0,115.734392 115.734392,0 258.5,0 C401.265608,0 517,115.734392 517,258.5 C517,401.265608 401.265608,517 258.5,517 Z M259,504 C394.309764,504 504,394.309764 504,259 C504,123.690236 394.309764,14 259,14 C123.690236,14 14,123.690236 14,259 C14,394.309764 123.690236,504 259,504 Z" id="Combined-Shape" fill="#000000" mask="url(#mask-2)"></path>
        </g>
    </g>
</svg>